<svg width="768" height="768" viewBox="0 0 768 768" fill="none" xmlns="http://www.w3.org/2000/svg">
<rect width="768" height="768" fill="#262626"/>
<path d="M509.6 375.6H489.2V334.8H509.6C554.6 334.8 591.2 298.2 591.2 253.2C591.2 208.2 554.6 171.6 509.6 171.6H489.2V130.8H509.6C577.1 130.8 632 185.8 632 253.2C632 320.6 577.1 375.6 509.6 375.6Z" fill="white"/>
<path d="M632 637.4H591.2V457.2C591.2 412.2 554.6 375.6 509.6 375.6H489.2V334.8H509.6C577.1 334.8 632 389.7 632 457.2V637.4Z" fill="white"/>
<path d="M196.8 130.6H156V637.2H196.8V130.6Z" fill="white"/>
<path d="M404.2 130.6H363.4V637.2H404.2V130.6Z" fill="white"/>
<path d="M404.2 334.6H278.4V375.4H404.2V334.6Z" fill="white"/>
</svg>
